<svg xmlns="http://www.w3.org/2000/svg" height="256" width="256" viewBox="0 0 25 25"><path fill="#FFFFFF" d="M0,0 h25v25H0z" shape-rendering="crispEdges"/><path fill="#000000" d="M0 0h7v1H0zM9 0h8v1H9zM18,0 h7v1H18zM0 1h1v1H0zM6 1h1v1H6zM10 1h2v1H10zM14 1h2v1H14zM18 1h1v1H18zM24,1 h1v1H24zM0 2h1v1H0zM2 2h3v1H2zM6 2h1v1H6zM8 2h1v1H8zM12 2h1v1H12zM14 2h3v1H14zM18 2h1v1H18zM20 2h3v1H20zM24,2 h1v1H24zM0 3h1v1H0zM2 3h3v1H2zM6 3h1v1H6zM9 3h1v1H9zM11 3h2v1H11zM14 3h3v1H14zM18 3h1v1H18zM20 3h3v1H20zM24,3 h1v1H24zM0 4h1v1H0zM2 4h3v1H2zM6 4h1v1H6zM9 4h3v1H9zM13 4h3v1H13zM18 4h1v1H18zM20 4h3v1H20zM24,4 h1v1H24zM0 5h1v1H0zM6 5h1v1H6zM10 5h2v1H10zM14 5h3v1H14zM18 5h1v1H18zM24,5 h1v1H24zM0 6h7v1H0zM8 6h1v1H8zM10 6h1v1H10zM12 6h1v1H12zM14 6h1v1H14zM16 6h1v1H16zM18,6 h7v1H18zM8 7h1v1H8zM11 7h1v1H11zM13 7h1v1H13zM15 7h2v1H15zM0 8h3v1H0zM4 8h5v1H4zM13 8h1v1H13zM16 8h3v1H16zM22 8h1v1H22zM1 9h1v1H1zM7 9h1v1H7zM9 9h1v1H9zM12 9h2v1H12zM16 9h3v1H16zM24,9 h1v1H24zM1 10h4v1H1zM6 10h3v1H6zM10 10h1v1H10zM17 10h1v1H17zM19 10h2v1H19zM22,10 h3v1H22zM2 11h2v1H2zM5 11h1v1H5zM9 11h3v1H9zM13 11h3v1H13zM23 11h1v1H23zM2 12h1v1H2zM4 12h3v1H4zM10 12h1v1H10zM12 12h2v1H12zM16 12h3v1H16zM21 12h1v1H21zM23,12 h2v1H23zM2 13h2v1H2zM7 13h1v1H7zM9 13h2v1H9zM12 13h3v1H12zM16 13h1v1H16zM18 13h1v1H18zM21 13h1v1H21zM24,13 h1v1H24zM0 14h1v1H0zM2 14h2v1H2zM6 14h2v1H6zM9 14h1v1H9zM12 14h1v1H12zM18 14h2v1H18zM22,14 h3v1H22zM1 15h1v1H1zM4 15h2v1H4zM7 15h1v1H7zM12 15h2v1H12zM17 15h1v1H17zM20 15h1v1H20zM23 15h1v1H23zM0 16h1v1H0zM3 16h4v1H3zM8 16h1v1H8zM11 16h3v1H11zM16 16h6v1H16zM8 17h1v1H8zM16 17h1v1H16zM20 17h2v1H20zM23,17 h2v1H23zM0 18h7v1H0zM8 18h1v1H8zM10 18h1v1H10zM15 18h2v1H15zM18 18h1v1H18zM20 18h2v1H20zM23,18 h2v1H23zM0 19h1v1H0zM6 19h1v1H6zM8 19h4v1H8zM13 19h1v1H13zM16 19h1v1H16zM20 19h2v1H20zM23,19 h2v1H23zM0 20h1v1H0zM2 20h3v1H2zM6 20h1v1H6zM8 20h1v1H8zM10 20h2v1H10zM13 20h1v1H13zM16 20h6v1H16zM23 20h1v1H23zM0 21h1v1H0zM2 21h3v1H2zM6 21h1v1H6zM9 21h1v1H9zM12 21h1v1H12zM19 21h4v1H19zM0 22h1v1H0zM2 22h3v1H2zM6 22h1v1H6zM8 22h3v1H8zM12 22h1v1H12zM14 22h4v1H14zM20 22h1v1H20zM24,22 h1v1H24zM0 23h1v1H0zM6 23h1v1H6zM8 23h1v1H8zM12 23h6v1H12zM20 23h2v1H20zM23 23h1v1H23zM0 24h7v1H0zM8 24h1v1H8zM12 24h2v1H12zM15 24h2v1H15zM19 24h1v1H19zM23,24 h2v1H23z" shape-rendering="crispEdges"/></svg>