<?xml version="1.0" encoding="UTF-8"?>
<!DOCTYPE svg PUBLIC "-//W3C//DTD SVG 1.1//EN" "http://www.w3.org/Graphics/SVG/1.1/DTD/svg11.dtd">
<!-- Creator: CorelDRAW 2021 (64-Bit) -->
<svg xmlns="http://www.w3.org/2000/svg" xml:space="preserve" width="39.9768mm" height="49.3055mm" version="1.1" shape-rendering="geometricPrecision" text-rendering="geometricPrecision" image-rendering="optimizeQuality" fill-rule="evenodd" clip-rule="evenodd"
viewBox="0 0 495.72 611.4"
 xmlns:xlink="http://www.w3.org/1999/xlink"
 xmlns:xodm="http://www.corel.com/coreldraw/odm/2003">
 <g id="Capa_x0020_1">
  <metadata id="CorelCorpID_0Corel-Layer"/>
  <path fill="#FEFEFE" fill-rule="nonzero" d="M272.17 561.04c-2.4,0 -4.37,-0.76 -5.9,-2.29 -1.53,-1.53 -2.29,-3.49 -2.29,-5.9l0 -212.98c0,-2.4 0.76,-4.37 2.29,-5.9 1.53,-1.53 3.49,-2.29 5.9,-2.29l89.12 0c28.18,0 50.4,6.5 66.68,19.5 16.27,13 24.41,31.4 24.41,55.21 0,15.51 -3.77,28.62 -11.3,39.32 -7.54,10.7 -17.42,18.79 -29.65,24.25l45.22 80.61c0.66,1.31 0.98,2.51 0.98,3.6 0,1.75 -0.71,3.33 -2.13,4.75 -1.42,1.42 -3.11,2.13 -5.08,2.13l-43.25 0c-4.15,0 -7.21,-1.04 -9.17,-3.11 -1.97,-2.08 -3.39,-3.99 -4.26,-5.73l-37.35 -72.09 -33.75 0 0 72.74c0,2.4 -0.77,4.37 -2.29,5.9 -1.53,1.53 -3.5,2.29 -5.9,2.29l-42.27 0zm50.46 -127.13l38.01 0c10.27,0 17.97,-2.51 23.1,-7.54 5.13,-5.02 7.7,-11.9 7.7,-20.64 0,-8.52 -2.46,-15.4 -7.37,-20.64 -4.91,-5.24 -12.72,-7.86 -23.43,-7.86l-38.01 0 0 56.69z"/>
  <path fill="#EC268F" d="M320.44 396.12c-12.69,2 -50.21,-3.71 -62.87,-6.51 -11.03,-2.45 -22.96,-5.92 -34.92,-10.19l1.57 0c3.48,0 6.59,-1.24 8.97,-3.79 2.23,-2.39 3.42,-5.32 3.42,-8.6l0 -17.35c9.88,6.41 20.91,13.09 36.52,21.67 8.32,4.58 14.68,8.2 23.62,12.6l23.68 12.17zm-187.62 -70.32l-1.72 -1.46 0 -34.37 23.35 0c12.87,10.76 27.31,21.4 39.51,30.77 2.64,1.77 5.14,3.45 7.52,5.07l-68.66 0zm-66.8 -79.32c-27.77,-44.06 -53.41,-100.55 -57.47,-137.01 19.52,32.38 36.97,62.31 60.8,92 9.56,11.91 18.89,22.74 28.21,32.92l-19.15 0c-3.38,0 -6.46,1.12 -8.87,3.52 -2.33,2.33 -3.45,5.3 -3.52,8.57z"/>
  <path fill="#00A859" d="M342.01 453.03c-10.21,6.93 -44.28,8.69 -58.43,8.78 -12.44,0.08 -25.1,-0.97 -37.13,-2.9l0 -29.96c0,-3.39 -1.12,-6.46 -3.52,-8.87 -2.4,-2.4 -5.48,-3.52 -8.87,-3.52l-86.3 0 -2.91 -2.01c-4.25,-2.94 -9.01,-7.11 -13.74,-11.64l0 -23.49 36.14 0 1.47 0.96c6.22,4.06 13.18,7.46 19.59,11.02 32.79,18.2 71.46,34.62 107.61,46.23 12.23,3.93 35.04,12.67 46.08,15.41zm-275.98 -140.24c-11.72,-23.08 -20.45,-46.07 -21.33,-61.74 7.78,12.55 14.44,23.22 21.33,33.34l0 28.4z"/>
  <path fill="#EC268F" d="M347.99 511.8c-2.36,2.43 -18.05,10.61 -34.4,13.91 -13.54,3.01 -30.39,4.14 -44.45,3.43 -26.59,-1.34 -52.1,-6.72 -71.34,-18.24 -21.52,-12.89 -34.42,-21.15 -50.72,-38.76l38.06 0c7.73,3.87 15.67,7.42 23.78,10.65 49.71,19.81 88.08,25.94 139.06,29.01z"/>
  <path fill="#0098DA" d="M395.54 577.65c31.17,-2.52 40.14,-5.71 66.92,-10.57 8.03,-1.46 11.29,-2.07 20.79,-5.43 -6.15,8.16 -6.51,8.12 -17.84,17.57 -4.89,4.08 -15.34,10.89 -22.21,14.3 -63.9,31.65 -131.91,19.14 -187.8,-20.58 -11.05,-7.85 -21.18,-17.18 -30.87,-26.03 9.59,6.6 23.57,13.2 34.38,16.81 45.9,15.33 86.81,17.68 136.63,13.94z"/>
  <path fill="#0098DA" d="M38.95 122.21c-16.74,-31.13 -36.23,-82.41 -38.95,-122.21 2.28,6.8 7.65,17.63 11,24.83 8.31,17.84 16.02,30.42 27.01,46.25 10.59,15.25 19.8,25.73 31.57,39.68 12.64,14.97 31.94,33.54 47.48,46.18 9.35,7.61 19.33,15.9 29.85,22.92 45.74,30.56 49.34,31.75 100.97,57.72 26.12,13.14 50.19,27.78 72.73,45.65 2.82,2.24 4.5,4.44 7.13,6.73l36.19 30.58c12.73,10.63 29.3,27.21 40.37,39.46l18.7 23.37c12.87,15.69 33.91,47.37 43.54,65.88 7.59,14.59 31,64.69 29.09,81.66 -5.26,-15.21 -21.22,-41.87 -29.71,-54.68 -17.53,-26.46 -36.28,-47.94 -57.38,-69.73 -2.03,-2.09 -3.28,-3.03 -5.38,-5.07l-27.65 -25.4c-10.46,-8.99 -9.12,-10.03 -22.55,-18.83 -35.67,-28.32 -65.73,-48.19 -110.61,-69.1l-2.56 -1.19c0.17,-0.15 0.34,-0.31 0.51,-0.48 2.4,-2.4 3.52,-5.48 3.52,-8.87l0 -30.8c0,-3.38 -1.12,-6.46 -3.52,-8.87 -2.4,-2.41 -5.48,-3.52 -8.87,-3.52l-88.15 0c-4.03,-2.84 -8.21,-5.88 -12.59,-9.14 -3.68,-2.74 -4.97,-2.74 -8.6,-6.32l-24.22 -20.65c-15.35,-16.71 -50.63,-55.15 -58.93,-76.06z"/>
  <path fill="#FEFEFE" fill-rule="nonzero" d="M78.41 467.94c-2.4,0 -4.37,-0.77 -5.9,-2.29 -1.53,-1.53 -2.29,-3.5 -2.29,-5.9l0 -212.98c0,-2.4 0.76,-4.37 2.29,-5.9 1.53,-1.53 3.5,-2.29 5.9,-2.29l153.02 0c2.4,0 4.37,0.76 5.9,2.29 1.53,1.53 2.29,3.5 2.29,5.9l0 30.8c0,2.4 -0.77,4.37 -2.29,5.9 -1.53,1.53 -3.5,2.29 -5.9,2.29l-104.52 0 0 44.23 97.32 0c2.4,0 4.37,0.82 5.9,2.46 1.53,1.64 2.29,3.66 2.29,6.06l0 28.51c0,2.18 -0.77,4.1 -2.29,5.73 -1.53,1.64 -3.49,2.46 -5.9,2.46l-97.32 0 0 45.55 107.15 0c2.4,0 4.37,0.77 5.9,2.29 1.53,1.53 2.29,3.49 2.29,5.9l0 30.8c0,2.4 -0.76,4.37 -2.29,5.9 -1.53,1.53 -3.49,2.29 -5.9,2.29l-155.64 0z"/>
 </g>
</svg>
