<?xml version="1.0" encoding="UTF-8"?>
<!DOCTYPE svg PUBLIC "-//W3C//DTD SVG 1.1//EN" "http://www.w3.org/Graphics/SVG/1.1/DTD/svg11.dtd">
<!-- Creator: CorelDRAW 2021 (64-Bit) -->
<svg xmlns="http://www.w3.org/2000/svg" xml:space="preserve" width="39.9768mm" height="49.3055mm" version="1.1" shape-rendering="geometricPrecision" text-rendering="geometricPrecision" image-rendering="optimizeQuality" fill-rule="evenodd" clip-rule="evenodd"
viewBox="0 0 771.62 951.68"
 xmlns:xlink="http://www.w3.org/1999/xlink"
 xmlns:xodm="http://www.corel.com/coreldraw/odm/2003">
 <g id="Capa_x0020_1">
  <metadata id="CorelCorpID_0Corel-Layer"/>
  <g id="_1979312378592">
   <path fill="#FEFEFE" fill-rule="nonzero" d="M423.65 873.28c-3.74,0 -6.8,-1.19 -9.18,-3.57 -2.38,-2.38 -3.57,-5.44 -3.57,-9.18l0 -331.51c0,-3.74 1.19,-6.8 3.57,-9.18 2.38,-2.38 5.44,-3.57 9.18,-3.57l138.73 0c43.86,0 78.46,10.12 103.79,30.35 25.33,20.23 38,48.88 38,85.94 0,24.14 -5.87,44.54 -17.6,61.2 -11.73,16.66 -27.12,29.24 -46.16,37.74l70.38 125.47c1.02,2.04 1.53,3.91 1.53,5.61 0,2.72 -1.11,5.19 -3.32,7.39 -2.21,2.21 -4.84,3.32 -7.91,3.32l-67.32 0c-6.46,0 -11.22,-1.62 -14.28,-4.84 -3.06,-3.23 -5.27,-6.21 -6.63,-8.93l-58.14 -112.21 -52.53 0 0 113.23c0,3.74 -1.19,6.8 -3.57,9.18 -2.38,2.38 -5.44,3.57 -9.18,3.57l-65.79 0zm78.54 -197.89l59.16 0c15.98,0 27.97,-3.91 35.96,-11.73 7.99,-7.82 11.99,-18.53 11.99,-32.13 0,-13.26 -3.83,-23.97 -11.48,-32.13 -7.65,-8.16 -19.81,-12.24 -36.47,-12.24l-59.16 0 0 88.24z"/>
   <path fill="#FEFEFE" d="M615.68 899.14c48.52,-3.93 62.47,-8.89 104.16,-16.45 12.5,-2.27 17.57,-3.22 32.36,-8.46 -9.57,12.7 -10.14,12.64 -27.76,27.34 -7.61,6.35 -23.87,16.96 -34.57,22.26 -99.46,49.27 -205.32,29.8 -292.33,-32.03 -17.19,-12.22 -32.96,-26.74 -48.04,-40.52 14.93,10.28 36.69,20.55 53.51,26.17 71.45,23.87 135.12,27.52 212.68,21.69zm-555.05 -708.92c-26.06,-48.46 -56.39,-128.28 -60.63,-190.22 3.55,10.58 11.91,27.45 17.13,38.65 12.94,27.76 24.93,47.35 42.05,72 16.48,23.73 30.82,40.05 49.15,61.76 19.68,23.31 49.72,52.21 73.91,71.88 14.56,11.84 30.09,24.74 46.46,35.68 71.2,47.56 76.8,49.42 157.16,89.84 40.66,20.45 78.13,43.24 113.2,71.05 4.39,3.49 7.01,6.92 11.1,10.47l56.33 47.6c19.81,16.55 45.6,42.36 62.83,61.42l29.1 36.38c20.04,24.42 52.78,73.73 67.77,102.55 11.81,22.71 48.25,100.69 45.28,127.11 -8.19,-23.67 -33.03,-65.18 -46.24,-85.11 -27.29,-41.19 -56.48,-74.62 -89.31,-108.54 -3.16,-3.26 -5.11,-4.71 -8.38,-7.88l-43.04 -39.53c-16.28,-13.99 -14.19,-15.62 -35.09,-29.32 -55.52,-44.08 -102.31,-75.01 -172.16,-107.56l-3.98 -1.85c0.27,-0.24 0.53,-0.49 0.79,-0.75 3.74,-3.74 5.48,-8.53 5.48,-13.8l0 -47.94c0,-5.27 -1.74,-10.06 -5.48,-13.8 -3.74,-3.74 -8.53,-5.48 -13.8,-5.48l-137.21 0c-6.28,-4.42 -12.78,-9.15 -19.6,-14.23 -5.73,-4.27 -7.74,-4.27 -13.38,-9.84l-37.69 -32.15c-23.89,-26.02 -78.8,-85.84 -91.72,-118.39zm438.15 426.35c-19.75,3.12 -78.15,-5.77 -97.85,-10.14 -17.16,-3.81 -35.74,-9.21 -54.35,-15.87l2.44 0c5.41,0 10.25,-1.93 13.96,-5.9 3.48,-3.73 5.33,-8.28 5.33,-13.38l0 -27.01c15.39,9.98 32.55,20.37 56.85,33.74 12.95,7.12 22.84,12.77 36.77,19.62l36.86 18.94zm-292.04 -109.46l-2.67 -2.28 0 -53.51 36.34 0c20.04,16.74 42.5,33.3 61.49,47.89 4.11,2.75 8,5.37 11.71,7.89l-106.87 0zm-103.97 -123.47c-43.22,-68.59 -83.14,-156.5 -89.46,-213.26 30.39,50.4 57.55,96.98 94.64,143.2 14.88,18.53 29.41,35.39 43.91,51.23l-29.81 0c-5.27,0 -10.06,1.74 -13.8,5.48 -3.63,3.63 -5.38,8.26 -5.48,13.34zm429.58 321.52c-15.89,10.78 -68.92,13.52 -90.95,13.66 -19.37,0.12 -39.07,-1.51 -57.8,-4.51l0 -46.63c0,-5.27 -1.74,-10.06 -5.49,-13.8 -3.74,-3.74 -8.53,-5.48 -13.8,-5.48l-134.33 0 -4.53 -3.13c-6.61,-4.58 -14.02,-11.06 -21.38,-18.12l0 -36.57 56.26 0 2.29 1.5c9.67,6.32 20.51,11.61 30.49,17.15 51.04,28.33 111.23,53.88 167.51,71.95 19.04,6.11 54.54,19.72 71.72,23.99zm-429.58 -218.3c-18.24,-35.93 -31.83,-71.71 -33.2,-96.1 12.11,19.53 22.48,36.14 33.2,51.9l0 44.2zm438.9 309.77c-3.67,3.79 -28.1,16.51 -53.54,21.66 -21.08,4.69 -47.3,6.44 -69.18,5.33 -41.38,-2.09 -81.09,-10.46 -111.04,-28.39 -33.5,-20.06 -53.58,-32.92 -78.95,-60.33l59.23 0c12.03,6.03 24.39,11.55 37.02,16.58 77.37,30.83 137.11,40.38 216.45,45.15z"/>
   <path fill="#FEFEFE" fill-rule="nonzero" d="M122.05 728.37c-3.74,0 -6.8,-1.19 -9.18,-3.57 -2.38,-2.38 -3.57,-5.44 -3.57,-9.18l0 -331.51c0,-3.74 1.19,-6.8 3.57,-9.18 2.38,-2.38 5.44,-3.57 9.18,-3.57l238.18 0c3.74,0 6.8,1.19 9.18,3.57 2.38,2.38 3.57,5.44 3.57,9.18l0 47.94c0,3.74 -1.19,6.8 -3.57,9.18 -2.38,2.38 -5.44,3.57 -9.18,3.57l-162.7 0 0 68.85 151.48 0c3.74,0 6.8,1.28 9.18,3.83 2.38,2.55 3.57,5.7 3.57,9.43l0 44.37c0,3.4 -1.19,6.38 -3.57,8.93 -2.38,2.55 -5.44,3.83 -9.18,3.83l-151.48 0 0 70.89 166.78 0c3.74,0 6.8,1.19 9.18,3.57 2.38,2.38 3.57,5.44 3.57,9.18l0 47.94c0,3.74 -1.19,6.8 -3.57,9.18 -2.38,2.38 -5.44,3.57 -9.18,3.57l-242.26 0z"/>
  </g>
 </g>
</svg>
