<?xml version="1.0" encoding="UTF-8"?>
<!DOCTYPE svg PUBLIC "-//W3C//DTD SVG 1.1//EN" "http://www.w3.org/Graphics/SVG/1.1/DTD/svg11.dtd">
<!-- Creator: CorelDRAW 2021 (64-Bit) -->
<svg xmlns="http://www.w3.org/2000/svg" xml:space="preserve" width="90mm" height="72.6425mm" version="1.1" shape-rendering="geometricPrecision" text-rendering="geometricPrecision" image-rendering="optimizeQuality" fill-rule="evenodd" clip-rule="evenodd"
viewBox="0 0 413.03 333.38"
 xmlns:xlink="http://www.w3.org/1999/xlink"
 xmlns:xodm="http://www.corel.com/coreldraw/odm/2003">
 <g id="Capa_x0020_1">
  <metadata id="CorelCorpID_0Corel-Layer"/>
  <path fill="#FEFEFE" fill-rule="nonzero" d="M364.72 0l-316.41 0c-26.64,0 -48.31,21.67 -48.31,48.31l0 236.75c0,26.64 21.67,48.31 48.31,48.31l316.41 0c26.64,0 48.31,-21.67 48.31,-48.31l0 -236.75c0,-26.64 -21.67,-48.31 -48.31,-48.31zm-32.12 47.2l0 0 -125.87 90.29 -122.12 -90.29 248 0zm32.12 238.97l0 0 -316.41 0c-0.61,0 -1.11,-0.49 -1.11,-1.11l0 -206.81 159.1 117.63 159.52 -114.42 0 203.6c0,0.61 -0.5,1.11 -1.11,1.11z"/>
 </g>
</svg>
