<?xml version="1.0" encoding="UTF-8"?>
<!DOCTYPE svg PUBLIC "-//W3C//DTD SVG 1.1//EN" "http://www.w3.org/Graphics/SVG/1.1/DTD/svg11.dtd">
<!-- Creator: CorelDRAW 2021 (64-Bit) -->
<svg xmlns="http://www.w3.org/2000/svg" xml:space="preserve" width="90mm" height="90mm" version="1.1" shape-rendering="geometricPrecision" text-rendering="geometricPrecision" image-rendering="optimizeQuality" fill-rule="evenodd" clip-rule="evenodd"
viewBox="0 0 413.23 413.23"
 xmlns:xlink="http://www.w3.org/1999/xlink"
 xmlns:xodm="http://www.corel.com/coreldraw/odm/2003">
 <g id="Capa_x0020_1">
  <metadata id="CorelCorpID_0Corel-Layer"/>
  <path fill="#FEFEFE" d="M206.61 413.23l0.01 -142.04 -51.66 0 0.01 -64.58 51.65 0c0,-46.38 -4.93,-78.9 22.65,-106.48 27.59,-27.59 60.12,-22.65 106.5,-22.65l0 64.58c-9.69,0 -19.38,-0 -29.06,0 -28.5,0.02 -22.59,3.32 -22.59,64.54l64.49 0.2 -25.76 64.39 -38.73 0 0 142.04 0.77 0 0.77 0 0.77 0 0.77 0 0.77 0 0.77 0 0.77 0 0.77 0 0.77 0 0.77 0 0.77 0 0.77 0 0.77 0 0.77 0 0.77 0 0.77 0 0.77 0 0.77 0 0.77 0 0.77 0 0.77 0 0.77 0 0.77 0 0.77 0 0.77 0 0.77 0 0.77 0 0.77 0 0.77 0 0.77 0 0.77 0 0.77 0 0.77 0 0.77 0 0.77 0 0.77 0 0.77 0 0.77 0 0.77 0 0.77 0 0.77 0 0.77 0 0.77 0 0.77 0 0.77 0 0.77 0 0.77 0 0.77 0 0.77 0 0.77 0 0.77 0 0.77 0 0.77 0 0.77 0 0.77 0 0.77 0 0.77 0 0.77 0 0.77 0 0.77 0 0.77 0 0.77 0 0.77 0 0.77 0 27.82 0c17.53,-0.96 33.3,-5.72 45.19,-25.46 4.71,-7.82 6.37,-14.74 6.9,-21.82l0 -20.52 0 -296.83c-0.71,-25.36 -23.6,-47.62 -47.16,-48.6l-296.66 0 -19.93 0c-12.97,0.55 -22.9,3.54 -36.38,17.13 -4.65,4.69 -6.7,8.97 -9.61,15.41 -2.15,4.77 -3.11,10.88 -3.49,17.54l0 28.2 0 246.16 0 40.52c1.46,14.32 6.27,27.17 20.16,37.79 4.15,3.17 10,6.53 15.85,8.36 3.66,1.14 10.71,1.78 19.12,2.11l53.03 0 1.54 0 1.54 0 1.54 0 1.54 0 1.54 0 1.54 0 1.54 0 1.54 0 1.54 0 1.54 0 1.54 0 1.54 0 1.54 0 1.54 0 1.54 0 1.54 0 1.54 0 1.54 0 1.54 0 1.54 0 1.54 0 1.54 0 1.54 0 1.54 0 1.54 0 1.54 0 1.54 0 1.54 0 1.54 0 1.54 0 1.54 0 1.54 0 1.54 0 1.54 0 1.54 0 1.54 0 1.54 0 1.54 0 1.54 0 1.54 0 1.54 0 1.54 0 1.54 0 1.54 0 1.54 0 1.54 0 1.54 0 1.54 0 1.54 0 1.54 0 1.54 0 1.54 0 1.54 0 1.54 0 1.54 0 1.54 0 1.54 0 1.54 0 1.54 0 1.54 0 1.54 0 1.54 0 1.54 0 1.54 0z"/>
 </g>
</svg>
