<?xml version="1.0" encoding="UTF-8"?>
<!DOCTYPE svg PUBLIC "-//W3C//DTD SVG 1.1//EN" "http://www.w3.org/Graphics/SVG/1.1/DTD/svg11.dtd">
<!-- Creator: CorelDRAW 2021 (64-Bit) -->
<svg xmlns="http://www.w3.org/2000/svg" xml:space="preserve" width="90.0005mm" height="90mm" version="1.1" shape-rendering="geometricPrecision" text-rendering="geometricPrecision" image-rendering="optimizeQuality" fill-rule="evenodd" clip-rule="evenodd"
viewBox="0 0 374.37 374.37"
 xmlns:xlink="http://www.w3.org/1999/xlink"
 xmlns:xodm="http://www.corel.com/coreldraw/odm/2003">
 <g id="Capa_x0020_1">
  <metadata id="CorelCorpID_0Corel-Layer"/>
  <g id="_1979570856944">
   <path fill="white" fill-rule="nonzero" d="M106.55 32.09c-41.06,0 -74.46,33.4 -74.46,74.46l0 161.27c0,41.06 33.4,74.46 74.46,74.46l161.27 0c41.06,0 74.47,-33.4 74.47,-74.46l0 -161.27c0,-41.06 -33.4,-74.46 -74.47,-74.46l-161.27 0zm161.27 342.28l-161.27 0c-58.75,0 -106.55,-47.79 -106.55,-106.55l0 -161.27c0,-58.75 47.8,-106.55 106.55,-106.55l161.27 0c58.75,0 106.56,47.8 106.56,106.55l0 161.27c0,58.76 -47.8,106.55 -106.56,106.55z"/>
   <path fill="white" fill-rule="nonzero" d="M187.19 123.42c-35.16,0 -63.77,28.6 -63.77,63.76 0,35.16 28.61,63.77 63.77,63.77 35.16,0 63.77,-28.6 63.77,-63.77 0,-35.16 -28.6,-63.76 -63.77,-63.76zm0 159.62c-52.85,0 -95.86,-43 -95.86,-95.86 0,-52.85 43,-95.86 95.86,-95.86 52.85,0 95.86,43 95.86,95.86 0,52.86 -43,95.86 -95.86,95.86z"/>
   <path fill="white" fill-rule="nonzero" d="M310.19 85.84c0,12.72 -10.31,23.04 -23.04,23.04 -12.72,0 -23.04,-10.31 -23.04,-23.04 0,-12.72 10.31,-23.04 23.04,-23.04 12.72,0 23.04,10.31 23.04,23.04z"/>
  </g>
 </g>
</svg>
