<?xml version="1.0" encoding="UTF-8"?>
<!DOCTYPE svg PUBLIC "-//W3C//DTD SVG 1.1//EN" "http://www.w3.org/Graphics/SVG/1.1/DTD/svg11.dtd">
<!-- Creator: CorelDRAW 2021 (64-Bit) -->
<svg xmlns="http://www.w3.org/2000/svg" xml:space="preserve" width="106.871mm" height="90mm" version="1.1" shape-rendering="geometricPrecision" text-rendering="geometricPrecision" image-rendering="optimizeQuality" fill-rule="evenodd" clip-rule="evenodd"
viewBox="0 0 779.97 656.84"
 xmlns:xlink="http://www.w3.org/1999/xlink"
 xmlns:xodm="http://www.corel.com/coreldraw/odm/2003">
 <g id="Capa_x0020_1">
  <metadata id="CorelCorpID_0Corel-Layer"/>
  <g id="_1979904558096">
   <path fill="#FEFEFE" d="M600.92 512.13l1.08 10.89c-0.06,1.18 0.04,0.87 -0.08,2.15l-0.43 2.68c-0.71,2.99 -2.43,5.27 -3.98,7.97 -0.56,0.97 -0.55,0.95 -0.94,1.65l-9.65 10.56c-12.38,7.22 -29.51,10.16 -44.18,14.09l-174.35 46.72c-4.83,1.29 -10.34,3.67 -15.18,3.43 -0.22,-0.01 -0.46,-0.08 -0.68,-0.09l-13.96 -1.22c-4.61,-1.3 -7.63,-2.28 -10.34,-4.96l-4.86 -4.28c-0.14,-0.15 -0.3,-0.36 -0.44,-0.51 -0.14,-0.15 -0.3,-0.36 -0.44,-0.51 -0.14,-0.15 -0.31,-0.35 -0.44,-0.5l-4.96 -6.65c-4.89,-7.1 -11.93,-40.27 -15.19,-52.43 -0.59,-2.21 -105.68,-390.51 -106.63,-398.11l2.19 -16.33c2.63,-7.19 2.57,-8.31 10.36,-15.28l10.72 -7.01c1.49,-0.76 220.45,-60.36 225.91,-60.33l16.6 1.73c0.25,0.09 0.93,0.41 1.16,0.53 1.41,0.69 0.15,0.07 1.65,0.95 1.05,0.62 1.2,0.73 2.18,1.3 5.06,2.96 8.53,5.16 11.76,10.11 0.13,0.19 0.26,0.4 0.39,0.59l6.38 11.81c2.96,6.87 93.89,350.22 111.82,417.16l4.98 18.27c1.75,7.47 -0.22,2.49 -0.44,5.61zm45.93 -2.08l-66.94 -249.81c2.29,-1.6 2.46,-3.73 2.97,-6.35 0.04,-0.2 0.09,-0.46 0.13,-0.66 2.02,-9.89 -2.87,-19.88 -5.46,-29.55 -2.72,-10.14 -4.57,-25.18 -11,-30.48l-5.24 -2.35 -7.44 -27.76c1.36,-0.95 0.78,-0.58 1.43,-1.37 2.08,-2.5 3.23,-6 3,-9.26 -0.09,-1.33 -0.8,-3.72 -1.18,-5.08l-14.3 -48.98c-0.18,-0.21 -0.71,-0.79 -0.9,-0.98l-4.73 -3.24c-0.91,-0.32 -0.31,-0.33 -1.93,-0.47l-12.55 -46.84c-3.13,-0.38 -0.65,2.13 -2.69,-2.96l-9.81 -16.03c-0.14,-0.15 -0.31,-0.34 -0.45,-0.49 -0.14,-0.15 -0.31,-0.34 -0.45,-0.5 -0.14,-0.15 -0.31,-0.35 -0.44,-0.51l-23.39 -17.9c-0.05,-0.03 -1.61,-0.97 -1.63,-0.98l-11.05 -3.71c-0.18,-0.06 -0.43,-0.14 -0.62,-0.21 -0.25,-0.09 -0.93,-0.41 -1.17,-0.51 -4.49,-1.81 -9.15,-2.22 -13.94,-2.52 -0.23,-0.01 -0.47,-0.04 -0.7,-0.06l-6.34 -0.44c-5.61,-0.18 -9.93,0.11 -16.5,1.91l-234.15 62.79c-2.34,1.01 -1.12,0.6 -1.89,1.11l-9.79 5.35c-4.13,3.77 3.26,-2.85 -0.94,0.93l-7.78 5.77c-0.15,0.14 -0.34,0.31 -0.49,0.45 -0.15,0.14 -0.34,0.31 -0.5,0.45l-6.28 5.91c-0.34,0.43 -1.11,1.53 -1.13,1.55l-4.19 4.91c-3.08,5.25 -7.81,11.53 -9.58,17.2 -0.06,0.19 -0.11,0.45 -0.16,0.64l-0.67 2.54c-0.06,0.18 -0.17,0.42 -0.24,0.59 -0.23,0.59 -0.76,1.68 -0.78,1.75l-0.56 1.88c-0.05,0.2 -0.09,0.46 -0.13,0.66l-1.98 9.85c-0.07,0.33 -0.54,2.43 -0.57,2.6l-0.42 14.42c-0.12,2.5 0.04,2.78 0.81,5.6l110.23 411.18c2.27,8.47 11.29,47.08 15.03,52.7 0.12,0.19 0.29,0.36 0.42,0.55 4.14,6.45 5.24,9.48 9.43,14.15l11.08 11.29c3.8,3.76 9.32,6.09 13.99,8.79l3.82 2.27c0.84,0.48 0.12,0.24 1.68,0.9l2.51 0.73c0.19,0.05 0.45,0.1 0.65,0.15 0.19,0.05 0.45,0.11 0.63,0.17l11.42 3.09c4.05,0.83 9.11,2.18 15.02,1.93 1.32,-0.06 1.81,-0.3 3.13,-0.34l11.04 -1.34c13.7,-3.8 233.93,-61.55 238.65,-64.59l1.09 -0.83c0.19,-0.13 0.38,-0.27 0.59,-0.39l8.3 -4.74c0.19,-0.13 0.4,-0.26 0.6,-0.39l10.44 -7.9c1.16,-1.11 0.83,-0.79 1.73,-1.93 0.35,-0.45 1.1,-1.51 1.13,-1.55 0.12,-0.15 0.3,-0.34 0.43,-0.49 0.13,-0.15 0.33,-0.32 0.46,-0.47l20.73 -48.16c0.01,-0.23 0.02,-0.48 0.04,-0.71l-0.17 -8.16c-0.89,-4.96 -1.92,-2.84 0.64,-4.77z"/>
   <g>
    <path fill="#FEFEFE" d="M596.68 86.42c140.45,29.23 193.87,151.85 71.48,285.52 -8.47,17.4 6.54,31.77 21.96,28.88 11.52,-2.16 13.31,-5.19 22.2,-12.18 0.15,-0.14 0.34,-0.31 0.5,-0.45 100.14,-113.74 105.86,-302.87 -105.07,-343.79 -10.96,-1.62 -22.2,7.03 -23.88,17.85 -1.47,9.46 2.46,20.32 12.82,24.17z"/>
    <path fill="#FEFEFE" d="M602.21 130.19c-21.43,-4.57 -33.2,35.48 -5.6,43.98 48.48,14.92 62.67,81.62 31,115.7 -14.54,16.23 -12.75,34.61 12.93,39.35 12.04,2.22 20.44,-10.79 27.32,-18.31 43,-82.01 8.56,-171.45 -65.65,-180.72z"/>
   </g>
   <path fill="#FEFEFE" d="M520.69 469.48c-4.65,1.14 -2.03,0.54 -4.81,-0.56 -0.25,-0.1 -0.9,-0.46 -1.16,-0.54l-4.87 -0.44c-0.29,-0.02 -1.08,-0.14 -1.38,-0.16 -3.81,-0.16 -5.75,0.91 -9.99,2.06 -12.43,3.38 -122.13,31.35 -126.49,34.75 -0.16,0.13 -0.34,0.31 -0.5,0.44l-8.29 9.88c-0.64,1.48 -0.23,0.38 -0.63,1.83l-1.06 10.49c0.23,3.04 2.54,5.79 4.8,8.99l2.65 3.03c4.58,4.09 9.79,5.62 15.63,5.95l2.77 0.28c5.13,0.24 106.59,-27.96 125.42,-32.94 4.37,-1.16 7.38,-3.24 10.55,-5.64 3.17,-2.39 6.63,-7.87 7.74,-11.66 0.08,-0.26 0.26,-1.02 0.32,-1.28l0.35 -2c0.02,-0.23 0.05,-0.47 0.05,-0.71 0.01,-3.63 0.54,3.27 -0.1,-1.53 -2.39,-17.91 -8.97,-13.38 -10.98,-20.27z"/>
   <g>
    <path fill="#FEFEFE" d="M183.29 489.63c-140.45,-29.23 -193.87,-151.85 -71.48,-285.52 8.47,-17.4 -6.54,-31.77 -21.96,-28.88 -11.52,2.16 -13.31,5.19 -22.2,12.18 -0.15,0.14 -0.34,0.31 -0.5,0.45 -100.14,113.74 -105.86,302.87 105.07,343.79 10.96,1.63 22.2,-7.03 23.88,-17.85 1.47,-9.46 -2.46,-20.32 -12.82,-24.17z"/>
    <path fill="#FEFEFE" d="M177.76 445.86c21.43,4.57 33.2,-35.48 5.6,-43.98 -48.48,-14.92 -62.67,-81.62 -31,-115.7 14.54,-16.23 12.75,-34.61 -12.93,-39.34 -12.04,-2.22 -20.44,10.79 -27.32,18.31 -43,82.01 -8.56,171.45 65.65,180.72z"/>
   </g>
  </g>
 </g>
</svg>
