<?xml version="1.0" encoding="UTF-8"?>
<!DOCTYPE svg PUBLIC "-//W3C//DTD SVG 1.1//EN" "http://www.w3.org/Graphics/SVG/1.1/DTD/svg11.dtd">
<!-- Creator: CorelDRAW 2021 (64-Bit) -->
<svg xmlns="http://www.w3.org/2000/svg" xml:space="preserve" width="89.9459mm" height="90mm" version="1.1" shape-rendering="geometricPrecision" text-rendering="geometricPrecision" image-rendering="optimizeQuality" fill-rule="evenodd" clip-rule="evenodd"
viewBox="0 0 465.51 465.79"
 xmlns:xlink="http://www.w3.org/1999/xlink"
 xmlns:xodm="http://www.corel.com/coreldraw/odm/2003">
 <g id="Capa_x0020_1">
  <metadata id="CorelCorpID_0Corel-Layer"/>
  <path fill="#FEFFFE" d="M-0 465.79l98.38 -24.97c30.01,-7.93 19.91,-4.05 45.18,6.26 50.59,20.64 106.78,23.76 158.58,7.42 92.09,-29.05 158.03,-111.94 163.07,-209.61 3.98,-77.18 -31.08,-142.45 -69,-178.05 -50.3,-47.22 -106.08,-70.38 -180.39,-66.39 -33.24,1.79 -70.28,14.16 -94.97,28.1 -10.74,6.06 -28.53,17.66 -37.16,25.32l-16.35 14.84c-47.22,51.06 -79.35,123.04 -62.57,208.63 5.8,29.57 12.38,43.4 24.9,67.6 4.13,7.98 0.13,14.15 -2.43,23.42 -8.72,31.56 -20.16,65.99 -27.23,97.44zm56.8 -55.34l59.86 -15.18c11.28,-2.95 9.36,-1.84 18.04,3.35 20.78,12.42 47.58,22.42 76.01,25.58 42.89,4.76 86.78,-4.81 121.77,-26.53l22.41 -15.36c18.46,-14.25 40.22,-41.54 50.36,-62.91 25.2,-53.1 28.94,-109.77 4.71,-164.84 -8.24,-18.72 -17.2,-31.68 -28.92,-46.53 -2.36,-2.99 -3.85,-3.7 -6.47,-6.5 -11.11,-11.9 -18.52,-18.91 -33.39,-29.14 -33.53,-23.05 -74.63,-35.02 -117.79,-32.85 -149.46,7.53 -230.49,173.72 -154.89,293.82 4,6.35 7.3,8.44 5.21,16.21 -5.08,18.86 -13.37,42.71 -16.92,60.87zm88.82 -286c-10.01,3.6 -24.25,21.87 -27.9,35.04 -9.4,33.86 10.93,69.16 29.98,93.38 15.57,19.79 14.06,16.72 30.47,33.34 9.62,9.75 22.45,19.5 35.09,27.35 14.09,8.76 25.14,14.49 42.54,21.24 74.74,28.98 98.3,-26.94 95.6,-45.9 -1.04,-7.29 -29,-17.43 -40.26,-22.5 -24.58,-11.07 -18.21,-11.92 -36.99,11.75 -5.64,7.11 -7.31,13.99 -18.13,9.7 -21.09,-8.37 -42.7,-22.68 -57.33,-37.79 -3.05,-3.15 -4.17,-5.59 -6.86,-8.78 -26.43,-31.24 -16.05,-29.23 -1,-47.76 10.09,-12.43 5.1,-14.5 -7.86,-44.88 -1.87,-4.38 -7.6,-19.06 -9.76,-21.5 -4.38,-4.93 -20.71,-5.16 -27.59,-2.69z"/>
 </g>
</svg>
